HIERARCHY
ROOT Hips
{
	OFFSET 0.000000 0.000000 0.000000
	CHANNELS 6 Xposition Yposition Zposition Zrotation Yrotation Xrotation 
	JOINT Spine1
	{
		OFFSET -0.013727 5.003763 -0.053727
		CHANNELS 3 Zrotation Yrotation Xrotation
		JOINT Spine2
		{
			OFFSET -0.000000 7.125302 -0.029825
			CHANNELS 3 Zrotation Yrotation Xrotation
			JOINT Chest
			{
				OFFSET -0.000001 7.550063 -0.815971
				CHANNELS 3 Zrotation Yrotation Xrotation
				JOINT Neck1
				{
					OFFSET -0.181677 26.311296 -0.553349
					CHANNELS 3 Zrotation Yrotation Xrotation
					JOINT Neck2
					{
						OFFSET -0.000003 7.709400 2.302586
						CHANNELS 3 Zrotation Yrotation Xrotation
						JOINT Head
						{
							OFFSET -0.000005 6.128913 1.953709
							CHANNELS 3 Zrotation Yrotation Xrotation
							JOINT HeadEnd
							{
								OFFSET 0.003598 16.065401 -1.835379
								CHANNELS 3 Zrotation Yrotation Xrotation
								End Site
								{
									OFFSET 0.000000 0.000000 0.000000
								}
							}
							JOINT Jaw
							{
								OFFSET 0.002637 0.475592 3.094941
								CHANNELS 3 Zrotation Yrotation Xrotation
								End Site
								{
									OFFSET 0.000000 0.000000 0.000000
								}
							}
							JOINT LeftEye
							{
								OFFSET 3.206381 5.380209 7.586883
								CHANNELS 3 Zrotation Yrotation Xrotation
								End Site
								{
									OFFSET 0.000000 0.000000 0.000000
								}
							}
							JOINT RightEye
							{
								OFFSET -3.222440 5.361868 7.558232
								CHANNELS 3 Zrotation Yrotation Xrotation
								End Site
								{
									OFFSET 0.000000 0.000000 0.000000
								}
							}
						}
					}
				}
				JOINT LeftShoulder
				{
					OFFSET 1.621652 23.237165 5.113412
					CHANNELS 3 Zrotation Yrotation Xrotation
					JOINT LeftArm
					{
						OFFSET 14.919845 -0.000001 -5.502325
						CHANNELS 3 Zrotation Yrotation Xrotation
						JOINT LeftForeArm
						{
							OFFSET 28.739309 0.000003 -0.002588
							CHANNELS 3 Zrotation Yrotation Xrotation
							JOINT LeftHand
							{
								OFFSET 27.093979 -0.000004 0.002609
								CHANNELS 3 Zrotation Yrotation Xrotation
								JOINT LeftHandThumb1
								{
									OFFSET 2.276480 -1.392045 3.191413
									CHANNELS 3 Zrotation Yrotation Xrotation
									JOINT LeftHandThumb2
									{
										OFFSET 4.012841 -1.828126 1.641656
										CHANNELS 3 Zrotation Yrotation Xrotation
										JOINT LeftHandThumb3
										{
											OFFSET 2.798517 0.000002 -0.000003
											CHANNELS 3 Zrotation Yrotation Xrotation
											JOINT LeftHandThumbEnd
											{
												OFFSET 3.180791 -0.000002 0.000002
												CHANNELS 3 Zrotation Yrotation Xrotation
												End Site
												{
													OFFSET 0.000000 0.000000 0.000000
												}
											}
										}
									}
								}
								JOINT LeftHandIndex1
								{
									OFFSET 3.247553 -0.531998 2.296169
									CHANNELS 3 Zrotation Yrotation Xrotation
									JOINT LeftHandIndex2
									{
										OFFSET 6.364580 0.012062 0.178599
										CHANNELS 3 Zrotation Yrotation Xrotation
										JOINT LeftHandIndex3
										{
											OFFSET 3.662368 0.000001 0.000001
											CHANNELS 3 Zrotation Yrotation Xrotation
											JOINT LeftHandIndex4
											{
												OFFSET 2.329242 0.000002 0.000004
												CHANNELS 3 Zrotation Yrotation Xrotation
												JOINT LeftHandIndexEnd
												{
													OFFSET 2.759619 -0.180538 -0.113024
													CHANNELS 3 Zrotation Yrotation Xrotation
													End Site
													{
														OFFSET 0.000000 0.000000 0.000000
													}
												}
											}
										}
									}
								}
								JOINT LeftHandMiddle1
								{
									OFFSET 3.163500 0.240982 1.000332
									CHANNELS 3 Zrotation Yrotation Xrotation
									JOINT LeftHandMiddle2
									{
										OFFSET 6.190778 -0.259276 -1.002548
										CHANNELS 3 Zrotation Yrotation Xrotation
										JOINT LeftHandMiddle3
										{
											OFFSET 4.356523 -0.000005 0.000000
											CHANNELS 3 Zrotation Yrotation Xrotation
											JOINT LeftHandMiddle4
											{
												OFFSET 2.996875 -0.000007 0.000000
												CHANNELS 3 Zrotation Yrotation Xrotation
												JOINT LeftHandMiddleEnd
												{
													OFFSET 2.304294 -0.294571 -0.031740
													CHANNELS 3 Zrotation Yrotation Xrotation
													End Site
													{
														OFFSET 0.000000 0.000000 0.000000
													}
												}
											}
										}
									}
								}
								JOINT LeftHandRing1
								{
									OFFSET 2.882641 -0.053650 -0.322544
									CHANNELS 3 Zrotation Yrotation Xrotation
									JOINT LeftHandRing2
									{
										OFFSET 5.854543 -0.486203 -1.373841
										CHANNELS 3 Zrotation Yrotation Xrotation
										JOINT LeftHandRing3
										{
											OFFSET 4.350580 0.000000 0.000003
											CHANNELS 3 Zrotation Yrotation Xrotation
											JOINT LeftHandRing4
											{
												OFFSET 2.651325 0.000007 0.000003
												CHANNELS 3 Zrotation Yrotation Xrotation
												JOINT LeftHandRingEnd
												{
													OFFSET 1.936110 0.077686 -0.000070
													CHANNELS 3 Zrotation Yrotation Xrotation
													End Site
													{
														OFFSET 0.000000 0.000000 0.000000
													}
												}
											}
										}
									}
								}
								JOINT LeftHandPinky1
								{
									OFFSET 2.865499 -0.310004 -1.600378
									CHANNELS 3 Zrotation Yrotation Xrotation
									JOINT LeftHandPinky2
									{
										OFFSET 5.087853 -1.331141 -1.771231
										CHANNELS 3 Zrotation Yrotation Xrotation
										JOINT LeftHandPinky3
										{
											OFFSET 3.070976 0.000003 0.000001
											CHANNELS 3 Zrotation Yrotation Xrotation
											JOINT LeftHandPinky4
											{
												OFFSET 1.549667 0.000000 0.000000
												CHANNELS 3 Zrotation Yrotation Xrotation
												JOINT LeftHandPinkyEnd
												{
													OFFSET 1.944894 -0.157802 0.057219
													CHANNELS 3 Zrotation Yrotation Xrotation
													End Site
													{
														OFFSET 0.000000 0.000000 0.000000
													}
												}
											}
										}
									}
								}
							}
						}
					}
				}
				JOINT RightShoulder
				{
					OFFSET -1.380118 23.180309 5.214157
					CHANNELS 3 Zrotation Yrotation Xrotation
					JOINT RightArm
					{
						OFFSET -15.037197 0.000011 -5.545604
						CHANNELS 3 Zrotation Yrotation Xrotation
						JOINT RightForeArm
						{
							OFFSET -28.736639 0.000004 -0.002598
							CHANNELS 3 Zrotation Yrotation Xrotation
							JOINT RightHand
							{
								OFFSET -27.133619 -0.000000 0.002613
								CHANNELS 3 Zrotation Yrotation Xrotation
								JOINT RightHandThumb1
								{
									OFFSET -2.274035 -1.383990 3.163127
									CHANNELS 3 Zrotation Yrotation Xrotation
									JOINT RightHandThumb2
									{
										OFFSET -4.011429 -1.827468 1.640914
										CHANNELS 3 Zrotation Yrotation Xrotation
										JOINT RightHandThumb3
										{
											OFFSET -2.794935 -0.000003 -0.000003
											CHANNELS 3 Zrotation Yrotation Xrotation
											JOINT RightHandThumbEnd
											{
												OFFSET -3.183856 0.000003 0.000000
												CHANNELS 3 Zrotation Yrotation Xrotation
												End Site
												{
													OFFSET 0.000000 0.000000 0.000000
												}
											}
										}
									}
								}
								JOINT RightHandIndex1
								{
									OFFSET -3.253270 -0.520059 2.282867
									CHANNELS 3 Zrotation Yrotation Xrotation
									JOINT RightHandIndex2
									{
										OFFSET -6.341918 0.012473 0.178265
										CHANNELS 3 Zrotation Yrotation Xrotation
										JOINT RightHandIndex3
										{
											OFFSET -3.654875 -0.000009 -0.000000
											CHANNELS 3 Zrotation Yrotation Xrotation
											JOINT RightHandIndex4
											{
												OFFSET -2.327586 -0.000001 -0.000001
												CHANNELS 3 Zrotation Yrotation Xrotation
												JOINT RightHandIndexEnd
												{
													OFFSET -2.761790 -0.180655 -0.113078
													CHANNELS 3 Zrotation Yrotation Xrotation
													End Site
													{
														OFFSET 0.000000 0.000000 0.000000
													}
												}
											}
										}
									}
								}
								JOINT RightHandMiddle1
								{
									OFFSET -3.168105 0.246594 1.001031
									CHANNELS 3 Zrotation Yrotation Xrotation
									JOINT RightHandMiddle2
									{
										OFFSET -6.180830 -0.258835 -1.000896
										CHANNELS 3 Zrotation Yrotation Xrotation
										JOINT RightHandMiddle3
										{
											OFFSET -4.348906 -0.000000 -0.000001
											CHANNELS 3 Zrotation Yrotation Xrotation
											JOINT RightHandMiddle4
											{
												OFFSET -3.000243 -0.000003 -0.000003
												CHANNELS 3 Zrotation Yrotation Xrotation
												JOINT RightHandMiddleEnd
												{
													OFFSET -2.302518 -0.294371 -0.031706
													CHANNELS 3 Zrotation Yrotation Xrotation
													End Site
													{
														OFFSET 0.000000 0.000000 0.000000
													}
												}
											}
										}
									}
								}
								JOINT RightHandRing1
								{
									OFFSET -2.885693 -0.067952 -0.308859
									CHANNELS 3 Zrotation Yrotation Xrotation
									JOINT RightHandRing2
									{
										OFFSET -5.854198 -0.486132 -1.373731
										CHANNELS 3 Zrotation Yrotation Xrotation
										JOINT RightHandRing3
										{
											OFFSET -4.338814 -0.000004 -0.000000
											CHANNELS 3 Zrotation Yrotation Xrotation
											JOINT RightHandRing4
											{
												OFFSET -2.654905 -0.000006 0.000003
												CHANNELS 3 Zrotation Yrotation Xrotation
												JOINT RightHandRingEnd
												{
													OFFSET -1.933570 0.077524 -0.000052
													CHANNELS 3 Zrotation Yrotation Xrotation
													End Site
													{
														OFFSET 0.000000 0.000000 0.000000
													}
												}
											}
										}
									}
								}
								JOINT RightHandPinky1
								{
									OFFSET -2.866429 -0.342798 -1.584145
									CHANNELS 3 Zrotation Yrotation Xrotation
									JOINT RightHandPinky2
									{
										OFFSET -5.091371 -1.332054 -1.772385
										CHANNELS 3 Zrotation Yrotation Xrotation
										JOINT RightHandPinky3
										{
											OFFSET -3.062666 -0.000007 0.000000
											CHANNELS 3 Zrotation Yrotation Xrotation
											JOINT RightHandPinky4
											{
												OFFSET -1.546527 0.000007 -0.000003
												CHANNELS 3 Zrotation Yrotation Xrotation
												JOINT RightHandPinkyEnd
												{
													OFFSET -1.945122 -0.157722 0.057211
													CHANNELS 3 Zrotation Yrotation Xrotation
													End Site
													{
														OFFSET 0.000000 0.000000 0.000000
													}
												}
											}
										}
									}
								}
							}
						}
					}
				}
			}
		}
	}
	JOINT LeftLeg
	{
		OFFSET 10.043214 -8.434526 2.595655
		CHANNELS 3 Zrotation Yrotation Xrotation
		JOINT LeftShin
		{
			OFFSET -0.000002 -43.221752 -0.802913
			CHANNELS 3 Zrotation Yrotation Xrotation
			JOINT LeftFoot
			{
				OFFSET 0.000001 -42.155094 -3.481522
				CHANNELS 3 Zrotation Yrotation Xrotation
				JOINT LeftToeBase
				{
					OFFSET 0.000000 -5.059474 13.231529
					CHANNELS 3 Zrotation Yrotation Xrotation
					JOINT LeftToeEnd
					{
						OFFSET -0.009607 -1.647615 6.513017
						CHANNELS 3 Zrotation Yrotation Xrotation
						End Site
						{
							OFFSET 0.000000 0.000000 0.000000
						}
					}
				}
			}
		}
	}
	JOINT RightLeg
	{
		OFFSET -10.047277 -8.295259 2.620317
		CHANNELS 3 Zrotation Yrotation Xrotation
		JOINT RightShin
		{
			OFFSET 0.000000 -43.362209 -0.805555
			CHANNELS 3 Zrotation Yrotation Xrotation
			JOINT RightFoot
			{
				OFFSET 0.000002 -42.117393 -3.478398
				CHANNELS 3 Zrotation Yrotation Xrotation
				JOINT RightToeBase
				{
					OFFSET -0.000001 -5.079609 13.284196
					CHANNELS 3 Zrotation Yrotation Xrotation
					JOINT RightToeEnd
					{
						OFFSET 0.009532 -1.634383 6.460591
						CHANNELS 3 Zrotation Yrotation Xrotation
						End Site
						{
							OFFSET 0.000000 0.000000 0.000000
						}
					}
				}
			}
		}
	}
}
MOTION
Frames: 4
Frame Time: 0.033333
0.614764 91.380463 -2.084491 -0.213458 0.108914 5.815543 0.191319 -0.050526 0.736010 -0.269489 -1.337227 -4.351263 -0.270222 -2.877593 12.864903 6.065551 -0.374643 11.246340 -1.204061 -2.050831 -3.581176 -0.801862 -3.418541 -2.430403 0.000077 -0.000022 0.000007 -0.000510 -0.015312 -0.132431 0.801196 -3.737827 -10.588281 -0.815869 3.706131 -10.604856 16.308102 -21.335281 3.732943 -57.247776 -40.462605 -18.222506 -179.406097 -45.114231 179.890259 1.314433 -13.231958 -27.825602 -5.882101 9.861279 0.702590 -10.936859 -0.360575 7.156197 -0.000000 8.774814 -0.000002 -16.037979 17.976347 6.230573 -1.844031 2.498504 -2.507277 -10.163589 4.678940 4.621103 -20.975992 -0.000006 0.000001 -21.226254 2.451692 -3.593992 0.000000 -0.000006 -0.000000 -1.362679 2.240794 -0.746324 -21.334890 0.584909 3.008321 -13.821197 -0.000003 0.000001 -23.887133 -0.249079 -0.839480 -60.645287 2.590885 -1.182293 -0.294024 1.679686 0.833255 -14.218194 0.093214 1.300579 -34.212006 -0.287563 0.967168 -20.033180 0.964538 1.212841 0.000000 -0.000001 0.000000 -3.440387 0.788233 0.501654 -15.928165 -3.167306 2.999704 -6.338817 0.000001 0.000002 -18.123413 3.648175 -4.905663 -0.000003 0.000002 -0.000003 -15.473828 22.258465 5.048474 53.433182 36.266949 -37.001923 179.877838 41.691486 -179.796646 0.183343 8.218271 -24.070341 2.243538 -5.255031 -3.180155 14.282878 -0.826594 6.952495 -0.000002 -12.690590 0.000002 15.890545 -17.834845 2.822109 1.665665 -1.955919 -2.878296 4.727793 -4.170583 4.993920 11.020508 0.000003 -0.000001 12.109028 -3.735708 -2.866780 -0.000001 -0.000000 0.000000 1.291983 -1.928548 -1.498088 14.800111 0.567466 3.865602 14.242553 -1.341735 -6.660647 19.631939 0.143926 -0.648243 50.053879 -0.331155 -6.022382 0.353028 -1.511149 -0.031941 20.222769 3.684305 2.316627 18.787245 0.000003 -0.000000 10.751610 -0.479868 1.397904 0.000000 0.000000 0.000000 3.273802 0.305947 -0.580111 21.486790 11.830360 2.266131 8.162917 0.000001 0.000001 18.399054 -3.798980 -4.940567 0.000003 -0.000002 -0.000000 16.043108 20.263733 -25.529360 -0.442408 -0.754259 41.732632 -19.996597 -4.641394 -14.730822 1.630928 -1.873288 -2.168421 -0.000000 0.000001 0.000002 -11.307347 -24.656080 -34.916771 0.361909 0.426343 41.491989 15.410072 0.247983 -6.345913 -1.436641 0.913655 -0.780557 0.000000 -0.000001 -0.000001 
0.612456 91.331520 -2.083596 -0.219835 0.186239 5.913313 0.174816 -0.040718 0.780648 -0.237746 -1.349083 -4.359636 -0.276808 -2.832824 12.882122 6.188656 -0.373941 11.033694 -1.238808 -2.148021 -3.568102 -0.907400 -3.412857 -2.388153 0.000077 -0.000023 0.000006 0.014300 -0.042430 -0.121022 0.805650 -3.767154 -10.589646 -0.792350 3.684618 -10.602473 16.500216 -21.381769 3.590076 -57.333752 -40.271980 -17.832775 -179.473190 -44.946484 179.935669 1.422668 -13.270708 -28.870073 -5.882101 9.861278 0.702588 -10.936858 -0.360575 7.156198 0.000001 8.774814 0.000000 -16.081373 17.987013 6.151641 -1.844030 2.498502 -2.507273 -10.163589 4.678941 4.621104 -20.975994 -0.000005 0.000002 -21.226250 2.451690 -3.593992 0.000001 -0.000005 -0.000003 -1.362680 2.240796 -0.746322 -21.334892 0.584907 3.008322 -13.821197 -0.000002 0.000002 -23.887125 -0.249079 -0.839480 -60.730110 2.479666 -1.248972 -0.294025 1.679688 0.833256 -14.218190 0.093215 1.300578 -34.212006 -0.287567 0.967169 -20.033178 0.964534 1.212842 0.000001 -0.000002 -0.000000 -3.440386 0.788232 0.501655 -15.928167 -3.167305 2.999704 -6.338817 -0.000000 0.000003 -18.123411 3.648175 -4.905662 -0.000003 0.000001 -0.000002 -15.747379 22.397749 5.037547 53.303509 36.305813 -37.519485 179.711777 41.496056 -179.829575 -0.219392 8.289221 -24.585907 2.243540 -5.255033 -3.180156 14.282877 -0.826592 6.952495 -0.000002 -12.690593 0.000000 15.807720 -17.768969 2.886235 1.665664 -1.955920 -2.878297 4.727795 -4.170583 4.993920 11.020508 0.000004 -0.000000 12.109028 -3.735710 -2.866781 -0.000001 -0.000000 -0.000001 1.291984 -1.928548 -1.498087 14.800113 0.567468 3.865603 14.242553 -1.341736 -6.660647 19.631939 0.143926 -0.648241 49.843132 -0.310601 -5.967954 0.353029 -1.511149 -0.031940 20.222769 3.684308 2.316628 18.787245 0.000004 0.000001 10.751612 -0.479867 1.397904 0.000000 0.000000 0.000000 3.273804 0.305947 -0.580110 21.486790 11.830365 2.266130 8.162917 0.000001 0.000001 18.399052 -3.798980 -4.940566 0.000003 -0.000001 -0.000001 16.052132 20.136024 -25.763548 -0.460352 -0.704221 41.942799 -20.038141 -4.434657 -14.797964 1.624618 -1.890707 -2.153163 -0.000000 -0.000001 0.000002 -11.266071 -24.760195 -35.113140 0.343562 0.401930 41.701412 15.723747 0.253910 -6.375440 -1.443260 0.899726 -0.972102 0.000000 0.000000 -0.000001 
0.619934 91.248825 -2.099101 -0.198493 0.522609 6.026418 0.150363 -0.035302 0.795540 -0.222722 -1.325354 -4.367063 -0.299273 -2.788804 12.883003 6.335314 -0.372752 10.867869 -1.289224 -2.283606 -3.569341 -0.963272 -3.548643 -2.369982 0.000077 -0.000022 0.000005 0.027468 -0.065238 -0.115764 0.801374 -3.787500 -10.606921 -0.765002 3.666866 -10.625865 16.677805 -21.450684 3.419181 -57.544704 -40.146202 -17.377243 -179.335495 -44.879700 179.830032 1.563714 -13.215685 -29.791323 -5.882102 9.861280 0.702591 -10.936859 -0.360574 7.156196 0.000000 8.774815 -0.000001 -16.040745 17.956078 6.098476 -1.844032 2.498504 -2.507275 -10.163590 4.678941 4.621101 -20.975996 -0.000001 0.000002 -21.226255 2.451694 -3.593996 0.000001 -0.000006 -0.000000 -1.362682 2.240796 -0.746323 -21.334887 0.584909 3.008318 -13.821197 -0.000002 0.000001 -23.887133 -0.249077 -0.839481 -60.801937 2.409624 -1.243960 -0.294022 1.679686 0.833256 -14.218194 0.093215 1.300579 -34.212006 -0.287564 0.967171 -20.033180 0.964535 1.212841 0.000000 -0.000001 0.000000 -3.440387 0.788234 0.501656 -15.928167 -3.167309 2.999701 -6.338818 0.000000 -0.000000 -18.123415 3.648178 -4.905663 -0.000003 -0.000000 -0.000003 -15.927041 22.395397 5.105570 53.193481 36.349884 -38.016258 179.585068 41.349121 -179.877182 -0.692430 8.255669 -25.083096 2.243540 -5.255033 -3.180155 14.282877 -0.826593 6.952496 -0.000003 -12.690590 0.000000 15.628669 -17.698254 2.978430 1.665664 -1.955920 -2.878295 4.727794 -4.170583 4.993918 11.020510 0.000004 -0.000001 12.109029 -3.735710 -2.866779 -0.000001 -0.000001 0.000000 1.291984 -1.928547 -1.498087 14.800109 0.567469 3.865604 14.242553 -1.341734 -6.660648 19.631937 0.143926 -0.648243 49.661446 -0.325840 -5.943453 0.353027 -1.511150 -0.031939 20.222765 3.684307 2.316628 18.787243 0.000005 0.000001 10.751610 -0.479869 1.397904 0.000000 0.000000 0.000000 3.273804 0.305947 -0.580109 21.486790 11.830365 2.266130 8.162916 0.000003 0.000001 18.399052 -3.798978 -4.940567 0.000003 -0.000001 -0.000001 15.981938 19.977215 -26.202408 -0.456574 -0.663828 42.266964 -20.090794 -4.427942 -14.826335 1.619647 -1.898597 -2.116515 0.000000 -0.000000 0.000002 -11.284713 -25.071218 -35.276848 0.349916 0.395553 41.979317 15.929392 0.195322 -6.531497 -1.446723 0.901822 -1.074442 -0.000000 -0.000000 -0.000001 
0.600971 91.132530 -2.086386 -0.145003 1.120038 6.167274 0.104538 -0.004671 0.774653 -0.221664 -1.244984 -4.354922 -0.330969 -2.775581 12.856487 6.450584 -0.390311 10.743632 -1.359460 -2.526592 -3.585834 -0.912765 -3.805917 -2.309855 0.000077 -0.000022 0.000005 0.025172 -0.059931 -0.120567 0.787760 -3.782776 -10.604978 -0.752059 3.663472 -10.613592 16.825285 -21.474985 3.263982 -57.925587 -40.127251 -16.689316 -178.978119 -44.911613 179.625366 1.754052 -13.016886 -30.656019 -5.882102 9.861278 0.702589 -10.936859 -0.360576 7.156197 0.000002 8.774813 -0.000002 -15.931075 17.925064 6.104217 -1.844031 2.498503 -2.507275 -10.163590 4.678940 4.621103 -20.975998 -0.000004 0.000004 -21.226255 2.451691 -3.593992 -0.000001 -0.000006 -0.000002 -1.362679 2.240794 -0.746322 -21.334896 0.584906 3.008320 -13.821197 -0.000003 0.000003 -23.887133 -0.249079 -0.839479 -60.816402 2.393132 -1.212287 -0.294026 1.679686 0.833255 -14.218195 0.093215 1.300580 -34.212006 -0.287565 0.967171 -20.033180 0.964535 1.212842 -0.000000 -0.000001 0.000001 -3.440385 0.788232 0.501656 -15.928171 -3.167308 2.999703 -6.338816 -0.000001 0.000001 -18.123413 3.648175 -4.905662 -0.000003 -0.000000 -0.000001 -16.012762 22.308899 5.238121 53.105904 36.287003 -38.572330 179.422836 41.217186 -179.895721 -1.180657 8.178416 -25.896723 2.243539 -5.255033 -3.180154 14.282877 -0.826592 6.952496 -0.000002 -12.690591 0.000001 15.455469 -17.707924 3.100165 1.665663 -1.955920 -2.878295 4.727793 -4.170584 4.993917 11.020511 0.000003 -0.000001 12.109033 -3.735709 -2.866780 0.000000 -0.000001 -0.000002 1.291985 -1.928548 -1.498088 14.800111 0.567470 3.865604 14.242553 -1.341735 -6.660647 19.631935 0.143927 -0.648241 49.569408 -0.334538 -5.897364 0.353030 -1.511150 -0.031940 20.222769 3.684309 2.316629 18.787245 0.000005 0.000002 10.751612 -0.479866 1.397905 0.000000 0.000000 -0.000000 3.273805 0.305947 -0.580111 21.486795 11.830366 2.266132 8.162914 0.000002 0.000001 18.399050 -3.798979 -4.940565 0.000003 0.000000 -0.000001 15.866732 19.745697 -26.800545 -0.458824 -0.647649 42.659470 -20.156637 -4.637425 -14.826202 1.615113 -1.869670 -2.084038 0.000000 -0.000000 0.000002 -11.356079 -25.545334 -35.391632 0.378243 0.412225 42.344536 16.154549 -0.000750 -6.914217 -1.446342 0.915860 -1.091922 0.000000 0.000000 -0.000001 
